<?xml version="1.0" standalone="no"?>
<!DOCTYPE svg PUBLIC "-//W3C//DTD SVG 20010904//EN"
 "http://www.w3.org/TR/2001/REC-SVG-20010904/DTD/svg10.dtd">
<svg version="1.0" xmlns="http://www.w3.org/2000/svg"
 width="260.000000pt" height="260.000000pt" viewBox="0 0 260.000000 260.000000"
 preserveAspectRatio="xMidYMid meet">
<metadata>
Created by potrace 1.11, written by Peter Selinger 2001-2013
</metadata>
<g transform="translate(0.000000,260.000000) scale(0.100000,-0.100000)"
fill="#000000" stroke="none">
<path d="M1128 2290 c-16 -5 -28 -6 -28 -3 0 3 -6 1 -13 -5 -7 -6 -22 -11 -32
-11 -18 0 -60 -7 -60 -11 0 -1 -11 -3 -25 -5 -14 -2 -38 -9 -55 -16 -35 -14
-32 -13 -69 -24 -48 -13 -170 -80 -256 -139 -45 -31 -84 -56 -86 -56 -7 0 -99
-100 -154 -167 -3 -3 2 -3 10 1 8 4 6 0 -5 -9 -11 -9 -19 -19 -17 -23 1 -4 -8
-20 -20 -37 -13 -16 -23 -37 -23 -45 0 -8 -5 -21 -13 -29 -7 -7 -11 -18 -9
-25 2 -6 -2 -17 -10 -24 -7 -7 -13 -24 -13 -36 0 -12 -3 -26 -7 -30 -5 -4 -9
-12 -9 -17 -1 -5 -2 -10 -4 -11 -5 -7 -12 -47 -15 -83 -4 -59 -27 -106 -78
-160 -25 -27 -51 -66 -58 -88 -11 -35 -10 -46 11 -107 13 -38 26 -67 28 -65 2
2 25 -22 50 -53 26 -31 50 -58 54 -60 4 -2 8 -9 8 -16 0 -7 8 -21 18 -32 10
-10 33 -52 52 -92 19 -39 38 -72 42 -72 4 0 5 -6 2 -13 -3 -8 2 -20 11 -27 8
-7 15 -21 15 -31 0 -11 7 -19 15 -19 8 0 14 -3 13 -7 -9 -29 191 -233 227
-233 8 0 15 -4 15 -9 0 -12 171 -94 223 -107 9 -2 27 -7 40 -10 12 -3 36 -7
52 -10 17 -3 41 -7 55 -10 30 -6 182 -17 225 -17 118 1 183 8 269 29 54 14
103 27 108 30 6 4 26 8 46 10 19 2 38 7 41 11 3 4 32 20 64 36 32 15 64 32 70
37 7 6 45 31 85 56 39 25 72 51 72 57 0 5 3 8 6 4 8 -8 33 16 27 26 -2 4 0 6
5 5 6 -2 18 5 29 14 10 10 33 31 51 48 18 16 30 30 28 30 -3 0 6 12 19 26 14
15 23 30 20 34 -3 4 2 13 10 20 15 12 69 100 70 112 0 4 5 12 12 19 6 6 9 18
6 27 -4 8 -2 13 3 9 5 -3 16 8 23 25 8 17 27 43 42 58 16 15 29 31 29 37 0 5
21 27 46 48 39 34 84 95 70 95 -3 0 2 12 9 27 10 19 11 29 4 34 -8 5 -8 8 1
11 7 2 11 22 10 53 -2 81 -1 90 8 93 12 4 6 142 -9 177 -7 17 -13 35 -15 42
-8 41 -27 82 -35 78 -5 -4 -9 -1 -9 5 0 23 -30 40 -128 74 -33 11 -182 147
-182 165 0 6 -16 27 -35 48 -19 21 -35 41 -35 46 0 4 -7 7 -15 7 -8 0 -20 9
-27 20 -7 11 -18 20 -25 20 -7 0 -13 5 -13 10 0 6 -7 10 -15 10 -8 0 -15 5
-15 10 0 6 -5 10 -11 10 -7 0 -20 9 -30 21 -9 11 -20 20 -23 19 -4 0 -26 11
-50 25 -24 14 -55 28 -68 30 -12 3 -24 9 -26 15 -2 5 -12 10 -22 10 -10 0 -22
5 -26 11 -3 6 -15 9 -25 6 -11 -3 -17 -1 -14 3 3 5 -7 11 -22 14 -16 4 -39 9
-53 12 -23 5 -44 9 -107 19 -13 2 -28 7 -34 10 -16 10 -289 14 -321 5z"/>
</g>
</svg>
